<svg id="visual" viewBox="0 0 960 300" width="960" height="300" xmlns="http://www.w3.org/2000/svg" xmlns:xlink="http://www.w3.org/1999/xlink" version="1.1"><path d="M0 201L22.8 201.5C45.7 202 91.3 203 137 209C182.7 215 228.3 226 274 221.7C319.7 217.3 365.3 197.7 411.2 188.8C457 180 503 182 548.8 182.2C594.7 182.3 640.3 180.7 686 184.5C731.7 188.3 777.3 197.7 823 197.5C868.7 197.3 914.3 187.7 937.2 182.8L960 178L960 0L937.2 0C914.3 0 868.7 0 823 0C777.3 0 731.7 0 686 0C640.3 0 594.7 0 548.8 0C503 0 457 0 411.2 0C365.3 0 319.7 0 274 0C228.3 0 182.7 0 137 0C91.3 0 45.7 0 22.8 0L0 0Z" fill="#7828c8"></path><path d="M0 151L22.8 161C45.7 171 91.3 191 137 192.5C182.7 194 228.3 177 274 168.3C319.7 159.7 365.3 159.3 411.2 161C457 162.7 503 166.3 548.8 169.3C594.7 172.3 640.3 174.7 686 168.5C731.7 162.3 777.3 147.7 823 151.5C868.7 155.3 914.3 177.7 937.2 188.8L960 200L960 0L937.2 0C914.3 0 868.7 0 823 0C777.3 0 731.7 0 686 0C640.3 0 594.7 0 548.8 0C503 0 457 0 411.2 0C365.3 0 319.7 0 274 0C228.3 0 182.7 0 137 0C91.3 0 45.7 0 22.8 0L0 0Z" fill="#d9008c"></path><path d="M0 119L22.8 122.2C45.7 125.3 91.3 131.7 137 137.3C182.7 143 228.3 148 274 151.7C319.7 155.3 365.3 157.7 411.2 149C457 140.3 503 120.7 548.8 121.7C594.7 122.7 640.3 144.3 686 153.8C731.7 163.3 777.3 160.7 823 155.8C868.7 151 914.3 144 937.2 140.5L960 137L960 0L937.2 0C914.3 0 868.7 0 823 0C777.3 0 731.7 0 686 0C640.3 0 594.7 0 548.8 0C503 0 457 0 411.2 0C365.3 0 319.7 0 274 0C228.3 0 182.7 0 137 0C91.3 0 45.7 0 22.8 0L0 0Z" fill="#f80048"></path><path d="M0 135L22.8 133.2C45.7 131.3 91.3 127.7 137 122.8C182.7 118 228.3 112 274 111.5C319.7 111 365.3 116 411.2 111.5C457 107 503 93 548.8 90.3C594.7 87.7 640.3 96.3 686 104.2C731.7 112 777.3 119 823 119.8C868.7 120.7 914.3 115.3 937.2 112.7L960 110L960 0L937.2 0C914.3 0 868.7 0 823 0C777.3 0 731.7 0 686 0C640.3 0 594.7 0 548.8 0C503 0 457 0 411.2 0C365.3 0 319.7 0 274 0C228.3 0 182.7 0 137 0C91.3 0 45.7 0 22.8 0L0 0Z" fill="#e96600"></path><path d="M0 99L22.8 91.8C45.7 84.7 91.3 70.3 137 66.3C182.7 62.3 228.3 68.7 274 72.8C319.7 77 365.3 79 411.2 79.8C457 80.7 503 80.3 548.8 75C594.7 69.7 640.3 59.3 686 61C731.7 62.7 777.3 76.3 823 83.8C868.7 91.3 914.3 92.7 937.2 93.3L960 94L960 0L937.2 0C914.3 0 868.7 0 823 0C777.3 0 731.7 0 686 0C640.3 0 594.7 0 548.8 0C503 0 457 0 411.2 0C365.3 0 319.7 0 274 0C228.3 0 182.7 0 137 0C91.3 0 45.7 0 22.8 0L0 0Z" fill="#bd9f00"></path><path d="M0 33L22.8 37.2C45.7 41.3 91.3 49.7 137 49.2C182.7 48.7 228.3 39.3 274 40C319.7 40.7 365.3 51.3 411.2 53.7C457 56 503 50 548.8 45.7C594.7 41.3 640.3 38.7 686 39.2C731.7 39.7 777.3 43.3 823 41.5C868.7 39.7 914.3 32.3 937.2 28.7L960 25L960 0L937.2 0C914.3 0 868.7 0 823 0C777.3 0 731.7 0 686 0C640.3 0 594.7 0 548.8 0C503 0 457 0 411.2 0C365.3 0 319.7 0 274 0C228.3 0 182.7 0 137 0C91.3 0 45.7 0 22.8 0L0 0Z" fill="#78c828"></path></svg>