<svg id="visual" viewBox="0 0 960 300" width="960" height="300" xmlns="http://www.w3.org/2000/svg" xmlns:xlink="http://www.w3.org/1999/xlink" version="1.1"><path d="M0 60L22.8 67C45.7 74 91.3 88 137 93.3C182.7 98.7 228.3 95.3 274 89.5C319.7 83.7 365.3 75.3 411.2 70.2C457 65 503 63 548.8 66.8C594.7 70.7 640.3 80.3 686 88.3C731.7 96.3 777.3 102.7 823 103.8C868.7 105 914.3 101 937.2 99L960 97L960 301L937.2 301C914.3 301 868.7 301 823 301C777.3 301 731.7 301 686 301C640.3 301 594.7 301 548.8 301C503 301 457 301 411.2 301C365.3 301 319.7 301 274 301C228.3 301 182.7 301 137 301C91.3 301 45.7 301 22.8 301L0 301Z" fill="#78c828"></path><path d="M0 118L22.8 110.2C45.7 102.3 91.3 86.7 137 86C182.7 85.3 228.3 99.7 274 105.5C319.7 111.3 365.3 108.7 411.2 105C457 101.3 503 96.7 548.8 95.8C594.7 95 640.3 98 686 102.2C731.7 106.3 777.3 111.7 823 117.3C868.7 123 914.3 129 937.2 132L960 135L960 301L937.2 301C914.3 301 868.7 301 823 301C777.3 301 731.7 301 686 301C640.3 301 594.7 301 548.8 301C503 301 457 301 411.2 301C365.3 301 319.7 301 274 301C228.3 301 182.7 301 137 301C91.3 301 45.7 301 22.8 301L0 301Z" fill="#4dcc5d"></path><path d="M0 128L22.8 127C45.7 126 91.3 124 137 123.2C182.7 122.3 228.3 122.7 274 129C319.7 135.3 365.3 147.7 411.2 147C457 146.3 503 132.7 548.8 121.3C594.7 110 640.3 101 686 103.3C731.7 105.7 777.3 119.3 823 125.8C868.7 132.3 914.3 131.7 937.2 131.3L960 131L960 301L937.2 301C914.3 301 868.7 301 823 301C777.3 301 731.7 301 686 301C640.3 301 594.7 301 548.8 301C503 301 457 301 411.2 301C365.3 301 319.7 301 274 301C228.3 301 182.7 301 137 301C91.3 301 45.7 301 22.8 301L0 301Z" fill="#01cd85"></path><path d="M0 162L22.8 155.7C45.7 149.3 91.3 136.7 137 139.8C182.7 143 228.3 162 274 163.2C319.7 164.3 365.3 147.7 411.2 138.5C457 129.3 503 127.7 548.8 128C594.7 128.3 640.3 130.7 686 130.5C731.7 130.3 777.3 127.7 823 135C868.7 142.3 914.3 159.7 937.2 168.3L960 177L960 301L937.2 301C914.3 301 868.7 301 823 301C777.3 301 731.7 301 686 301C640.3 301 594.7 301 548.8 301C503 301 457 301 411.2 301C365.3 301 319.7 301 274 301C228.3 301 182.7 301 137 301C91.3 301 45.7 301 22.8 301L0 301Z" fill="#00cca6"></path><path d="M0 139L22.8 140.7C45.7 142.3 91.3 145.7 137 146.8C182.7 148 228.3 147 274 153.5C319.7 160 365.3 174 411.2 181.5C457 189 503 190 548.8 185.5C594.7 181 640.3 171 686 163.3C731.7 155.7 777.3 150.3 823 151.7C868.7 153 914.3 161 937.2 165L960 169L960 301L937.2 301C914.3 301 868.7 301 823 301C777.3 301 731.7 301 686 301C640.3 301 594.7 301 548.8 301C503 301 457 301 411.2 301C365.3 301 319.7 301 274 301C228.3 301 182.7 301 137 301C91.3 301 45.7 301 22.8 301L0 301Z" fill="#00c9bf"></path><path d="M0 207L22.8 207.8C45.7 208.7 91.3 210.3 137 211C182.7 211.7 228.3 211.3 274 204C319.7 196.7 365.3 182.3 411.2 176.3C457 170.3 503 172.7 548.8 175.8C594.7 179 640.3 183 686 188.7C731.7 194.3 777.3 201.7 823 198.3C868.7 195 914.3 181 937.2 174L960 167L960 301L937.2 301C914.3 301 868.7 301 823 301C777.3 301 731.7 301 686 301C640.3 301 594.7 301 548.8 301C503 301 457 301 411.2 301C365.3 301 319.7 301 274 301C228.3 301 182.7 301 137 301C91.3 301 45.7 301 22.8 301L0 301Z" fill="#00c5cf"></path><path d="M0 227L22.8 225.8C45.7 224.7 91.3 222.3 137 219.2C182.7 216 228.3 212 274 208.2C319.7 204.3 365.3 200.7 411.2 200.2C457 199.7 503 202.3 548.8 204.3C594.7 206.3 640.3 207.7 686 211.5C731.7 215.3 777.3 221.7 823 218.8C868.7 216 914.3 204 937.2 198L960 192L960 301L937.2 301C914.3 301 868.7 301 823 301C777.3 301 731.7 301 686 301C640.3 301 594.7 301 548.8 301C503 301 457 301 411.2 301C365.3 301 319.7 301 274 301C228.3 301 182.7 301 137 301C91.3 301 45.7 301 22.8 301L0 301Z" fill="#08c0db"></path><path d="M0 248L22.8 247.3C45.7 246.7 91.3 245.3 137 245.8C182.7 246.3 228.3 248.7 274 249.3C319.7 250 365.3 249 411.2 247.8C457 246.7 503 245.3 548.8 243C594.7 240.7 640.3 237.3 686 234.8C731.7 232.3 777.3 230.7 823 227.2C868.7 223.7 914.3 218.3 937.2 215.7L960 213L960 301L937.2 301C914.3 301 868.7 301 823 301C777.3 301 731.7 301 686 301C640.3 301 594.7 301 548.8 301C503 301 457 301 411.2 301C365.3 301 319.7 301 274 301C228.3 301 182.7 301 137 301C91.3 301 45.7 301 22.8 301L0 301Z" fill="#36bae2"></path><path d="M0 260L22.8 260.5C45.7 261 91.3 262 137 258.3C182.7 254.7 228.3 246.3 274 246.2C319.7 246 365.3 254 411.2 257.7C457 261.3 503 260.7 548.8 258.2C594.7 255.7 640.3 251.3 686 248.2C731.7 245 777.3 243 823 241C868.7 239 914.3 237 937.2 236L960 235L960 301L937.2 301C914.3 301 868.7 301 823 301C777.3 301 731.7 301 686 301C640.3 301 594.7 301 548.8 301C503 301 457 301 411.2 301C365.3 301 319.7 301 274 301C228.3 301 182.7 301 137 301C91.3 301 45.7 301 22.8 301L0 301Z" fill="#57b3e5"></path><path d="M0 266L22.8 268.3C45.7 270.7 91.3 275.3 137 276.2C182.7 277 228.3 274 274 270.8C319.7 267.7 365.3 264.3 411.2 266.2C457 268 503 275 548.8 277.7C594.7 280.3 640.3 278.7 686 277.7C731.7 276.7 777.3 276.3 823 276.2C868.7 276 914.3 276 937.2 276L960 276L960 301L937.2 301C914.3 301 868.7 301 823 301C777.3 301 731.7 301 686 301C640.3 301 594.7 301 548.8 301C503 301 457 301 411.2 301C365.3 301 319.7 301 274 301C228.3 301 182.7 301 137 301C91.3 301 45.7 301 22.8 301L0 301Z" fill="#73abe3"></path></svg>