<svg id="visual" viewBox="0 0 960 300" width="960" height="300" xmlns="http://www.w3.org/2000/svg" xmlns:xlink="http://www.w3.org/1999/xlink" version="1.1"><path d="M0 164L9.3 162C18.7 160 37.3 156 56.2 156.7C75 157.3 94 162.7 112.8 163.3C131.7 164 150.3 160 169.2 157.2C188 154.3 207 152.7 225.8 155.8C244.7 159 263.3 167 282.2 168.7C301 170.3 320 165.7 338.8 164.7C357.7 163.7 376.3 166.3 395.2 165C414 163.7 433 158.3 451.8 157C470.7 155.7 489.3 158.3 508.2 159.8C527 161.3 546 161.7 564.8 163.8C583.7 166 602.3 170 621.2 169.8C640 169.7 659 165.3 677.8 161.3C696.7 157.3 715.3 153.7 734.2 152.2C753 150.7 772 151.3 790.8 151C809.7 150.7 828.3 149.3 847.2 150.2C866 151 885 154 903.8 158.3C922.7 162.7 941.3 168.3 950.7 171.2L960 174L960 0L950.7 0C941.3 0 922.7 0 903.8 0C885 0 866 0 847.2 0C828.3 0 809.7 0 790.8 0C772 0 753 0 734.2 0C715.3 0 696.7 0 677.8 0C659 0 640 0 621.2 0C602.3 0 583.7 0 564.8 0C546 0 527 0 508.2 0C489.3 0 470.7 0 451.8 0C433 0 414 0 395.2 0C376.3 0 357.7 0 338.8 0C320 0 301 0 282.2 0C263.3 0 244.7 0 225.8 0C207 0 188 0 169.2 0C150.3 0 131.7 0 112.8 0C94 0 75 0 56.2 0C37.3 0 18.7 0 9.3 0L0 0Z" fill="#78c828"></path><path d="M0 150L9.3 150.3C18.7 150.7 37.3 151.3 56.2 149.7C75 148 94 144 112.8 144.2C131.7 144.3 150.3 148.7 169.2 148.7C188 148.7 207 144.3 225.8 141.3C244.7 138.3 263.3 136.7 282.2 136.2C301 135.7 320 136.3 338.8 136.3C357.7 136.3 376.3 135.7 395.2 138.5C414 141.3 433 147.7 451.8 149.8C470.7 152 489.3 150 508.2 147.8C527 145.7 546 143.3 564.8 140.7C583.7 138 602.3 135 621.2 136.7C640 138.3 659 144.7 677.8 147.5C696.7 150.3 715.3 149.7 734.2 148.2C753 146.7 772 144.3 790.8 141.3C809.7 138.3 828.3 134.7 847.2 136.3C866 138 885 145 903.8 146.5C922.7 148 941.3 144 950.7 142L960 140L960 0L950.7 0C941.3 0 922.7 0 903.8 0C885 0 866 0 847.2 0C828.3 0 809.7 0 790.8 0C772 0 753 0 734.2 0C715.3 0 696.7 0 677.8 0C659 0 640 0 621.2 0C602.3 0 583.7 0 564.8 0C546 0 527 0 508.2 0C489.3 0 470.7 0 451.8 0C433 0 414 0 395.2 0C376.3 0 357.7 0 338.8 0C320 0 301 0 282.2 0C263.3 0 244.7 0 225.8 0C207 0 188 0 169.2 0C150.3 0 131.7 0 112.8 0C94 0 75 0 56.2 0C37.3 0 18.7 0 9.3 0L0 0Z" fill="#95c62d"></path><path d="M0 121L9.3 119.2C18.7 117.3 37.3 113.7 56.2 114C75 114.3 94 118.7 112.8 121C131.7 123.3 150.3 123.7 169.2 123.5C188 123.3 207 122.7 225.8 121.3C244.7 120 263.3 118 282.2 117C301 116 320 116 338.8 116C357.7 116 376.3 116 395.2 115.8C414 115.7 433 115.3 451.8 116.7C470.7 118 489.3 121 508.2 121.3C527 121.7 546 119.3 564.8 119.3C583.7 119.3 602.3 121.7 621.2 120.5C640 119.3 659 114.7 677.8 115.5C696.7 116.3 715.3 122.7 734.2 125.8C753 129 772 129 790.8 126.5C809.7 124 828.3 119 847.2 119.3C866 119.7 885 125.3 903.8 125.2C922.7 125 941.3 119 950.7 116L960 113L960 0L950.7 0C941.3 0 922.7 0 903.8 0C885 0 866 0 847.2 0C828.3 0 809.7 0 790.8 0C772 0 753 0 734.2 0C715.3 0 696.7 0 677.8 0C659 0 640 0 621.2 0C602.3 0 583.7 0 564.8 0C546 0 527 0 508.2 0C489.3 0 470.7 0 451.8 0C433 0 414 0 395.2 0C376.3 0 357.7 0 338.8 0C320 0 301 0 282.2 0C263.3 0 244.7 0 225.8 0C207 0 188 0 169.2 0C150.3 0 131.7 0 112.8 0C94 0 75 0 56.2 0C37.3 0 18.7 0 9.3 0L0 0Z" fill="#adc438"></path><path d="M0 109L9.3 109.5C18.7 110 37.3 111 56.2 109.5C75 108 94 104 112.8 101C131.7 98 150.3 96 169.2 97.2C188 98.3 207 102.7 225.8 105.2C244.7 107.7 263.3 108.3 282.2 106.2C301 104 320 99 338.8 99.3C357.7 99.7 376.3 105.3 395.2 106.3C414 107.3 433 103.7 451.8 103.2C470.7 102.7 489.3 105.3 508.2 105C527 104.7 546 101.3 564.8 100.5C583.7 99.7 602.3 101.3 621.2 102.3C640 103.3 659 103.7 677.8 105.2C696.7 106.7 715.3 109.3 734.2 108.5C753 107.7 772 103.3 790.8 102.7C809.7 102 828.3 105 847.2 104C866 103 885 98 903.8 96.3C922.7 94.7 941.3 96.3 950.7 97.2L960 98L960 0L950.7 0C941.3 0 922.7 0 903.8 0C885 0 866 0 847.2 0C828.3 0 809.7 0 790.8 0C772 0 753 0 734.2 0C715.3 0 696.7 0 677.8 0C659 0 640 0 621.2 0C602.3 0 583.7 0 564.8 0C546 0 527 0 508.2 0C489.3 0 470.7 0 451.8 0C433 0 414 0 395.2 0C376.3 0 357.7 0 338.8 0C320 0 301 0 282.2 0C263.3 0 244.7 0 225.8 0C207 0 188 0 169.2 0C150.3 0 131.7 0 112.8 0C94 0 75 0 56.2 0C37.3 0 18.7 0 9.3 0L0 0Z" fill="#c1c245"></path><path d="M0 90L9.3 87.8C18.7 85.7 37.3 81.3 56.2 81.3C75 81.3 94 85.7 112.8 88C131.7 90.3 150.3 90.7 169.2 90.2C188 89.7 207 88.3 225.8 88.2C244.7 88 263.3 89 282.2 87C301 85 320 80 338.8 77.7C357.7 75.3 376.3 75.7 395.2 78C414 80.3 433 84.7 451.8 86.5C470.7 88.3 489.3 87.7 508.2 87.7C527 87.7 546 88.3 564.8 88.3C583.7 88.3 602.3 87.7 621.2 87C640 86.3 659 85.7 677.8 83.5C696.7 81.3 715.3 77.7 734.2 75.7C753 73.7 772 73.3 790.8 75.8C809.7 78.3 828.3 83.7 847.2 84C866 84.3 885 79.7 903.8 78.8C922.7 78 941.3 81 950.7 82.5L960 84L960 0L950.7 0C941.3 0 922.7 0 903.8 0C885 0 866 0 847.2 0C828.3 0 809.7 0 790.8 0C772 0 753 0 734.2 0C715.3 0 696.7 0 677.8 0C659 0 640 0 621.2 0C602.3 0 583.7 0 564.8 0C546 0 527 0 508.2 0C489.3 0 470.7 0 451.8 0C433 0 414 0 395.2 0C376.3 0 357.7 0 338.8 0C320 0 301 0 282.2 0C263.3 0 244.7 0 225.8 0C207 0 188 0 169.2 0C150.3 0 131.7 0 112.8 0C94 0 75 0 56.2 0C37.3 0 18.7 0 9.3 0L0 0Z" fill="#d1c054"></path><path d="M0 62L9.3 63.3C18.7 64.7 37.3 67.3 56.2 66.2C75 65 94 60 112.8 57.7C131.7 55.3 150.3 55.7 169.2 57.3C188 59 207 62 225.8 64C244.7 66 263.3 67 282.2 65.8C301 64.7 320 61.3 338.8 61C357.7 60.7 376.3 63.3 395.2 65.3C414 67.3 433 68.7 451.8 69C470.7 69.3 489.3 68.7 508.2 67C527 65.3 546 62.7 564.8 61.3C583.7 60 602.3 60 621.2 59C640 58 659 56 677.8 56.8C696.7 57.7 715.3 61.3 734.2 63.5C753 65.7 772 66.3 790.8 66.2C809.7 66 828.3 65 847.2 63.2C866 61.3 885 58.7 903.8 57.5C922.7 56.3 941.3 56.7 950.7 56.8L960 57L960 0L950.7 0C941.3 0 922.7 0 903.8 0C885 0 866 0 847.2 0C828.3 0 809.7 0 790.8 0C772 0 753 0 734.2 0C715.3 0 696.7 0 677.8 0C659 0 640 0 621.2 0C602.3 0 583.7 0 564.8 0C546 0 527 0 508.2 0C489.3 0 470.7 0 451.8 0C433 0 414 0 395.2 0C376.3 0 357.7 0 338.8 0C320 0 301 0 282.2 0C263.3 0 244.7 0 225.8 0C207 0 188 0 169.2 0C150.3 0 131.7 0 112.8 0C94 0 75 0 56.2 0C37.3 0 18.7 0 9.3 0L0 0Z" fill="#ddbf63"></path><path d="M0 42L9.3 40.7C18.7 39.3 37.3 36.7 56.2 38C75 39.3 94 44.7 112.8 45.3C131.7 46 150.3 42 169.2 41.5C188 41 207 44 225.8 45.7C244.7 47.3 263.3 47.7 282.2 47C301 46.3 320 44.7 338.8 43.5C357.7 42.3 376.3 41.7 395.2 41.8C414 42 433 43 451.8 44.2C470.7 45.3 489.3 46.7 508.2 46.7C527 46.7 546 45.3 564.8 44.3C583.7 43.3 602.3 42.7 621.2 43.3C640 44 659 46 677.8 45.8C696.7 45.7 715.3 43.3 734.2 41.2C753 39 772 37 790.8 38.3C809.7 39.7 828.3 44.3 847.2 46.2C866 48 885 47 903.8 45C922.7 43 941.3 40 950.7 38.5L960 37L960 0L950.7 0C941.3 0 922.7 0 903.8 0C885 0 866 0 847.2 0C828.3 0 809.7 0 790.8 0C772 0 753 0 734.2 0C715.3 0 696.7 0 677.8 0C659 0 640 0 621.2 0C602.3 0 583.7 0 564.8 0C546 0 527 0 508.2 0C489.3 0 470.7 0 451.8 0C433 0 414 0 395.2 0C376.3 0 357.7 0 338.8 0C320 0 301 0 282.2 0C263.3 0 244.7 0 225.8 0C207 0 188 0 169.2 0C150.3 0 131.7 0 112.8 0C94 0 75 0 56.2 0C37.3 0 18.7 0 9.3 0L0 0Z" fill="#e7be74"></path><path d="M0 16L9.3 16.3C18.7 16.7 37.3 17.3 56.2 18.3C75 19.3 94 20.7 112.8 20.5C131.7 20.3 150.3 18.7 169.2 18.7C188 18.7 207 20.3 225.8 21.5C244.7 22.7 263.3 23.3 282.2 22.7C301 22 320 20 338.8 20.3C357.7 20.7 376.3 23.3 395.2 24C414 24.7 433 23.3 451.8 23.8C470.7 24.3 489.3 26.7 508.2 25.7C527 24.7 546 20.3 564.8 20.3C583.7 20.3 602.3 24.7 621.2 24.7C640 24.7 659 20.3 677.8 19.8C696.7 19.3 715.3 22.7 734.2 22.7C753 22.7 772 19.3 790.8 18.7C809.7 18 828.3 20 847.2 20C866 20 885 18 903.8 18.2C922.7 18.3 941.3 20.7 950.7 21.8L960 23L960 0L950.7 0C941.3 0 922.7 0 903.8 0C885 0 866 0 847.2 0C828.3 0 809.7 0 790.8 0C772 0 753 0 734.2 0C715.3 0 696.7 0 677.8 0C659 0 640 0 621.2 0C602.3 0 583.7 0 564.8 0C546 0 527 0 508.2 0C489.3 0 470.7 0 451.8 0C433 0 414 0 395.2 0C376.3 0 357.7 0 338.8 0C320 0 301 0 282.2 0C263.3 0 244.7 0 225.8 0C207 0 188 0 169.2 0C150.3 0 131.7 0 112.8 0C94 0 75 0 56.2 0C37.3 0 18.7 0 9.3 0L0 0Z" fill="#edbf85"></path></svg>