<svg id="visual" viewBox="0 0 960 300" width="960" height="300" xmlns="http://www.w3.org/2000/svg" xmlns:xlink="http://www.w3.org/1999/xlink" version="1.1"><path d="M0 97L22.8 96.5C45.7 96 91.3 95 137 89C182.7 83 228.3 72 274 76.3C319.7 80.7 365.3 100.3 411.2 109.2C457 118 503 116 548.8 115.8C594.7 115.7 640.3 117.3 686 113.5C731.7 109.7 777.3 100.3 823 100.5C868.7 100.7 914.3 110.3 937.2 115.2L960 120L960 301L937.2 301C914.3 301 868.7 301 823 301C777.3 301 731.7 301 686 301C640.3 301 594.7 301 548.8 301C503 301 457 301 411.2 301C365.3 301 319.7 301 274 301C228.3 301 182.7 301 137 301C91.3 301 45.7 301 22.8 301L0 301Z" fill="#78c828"></path><path d="M0 147L22.8 137C45.7 127 91.3 107 137 105.5C182.7 104 228.3 121 274 129.7C319.7 138.3 365.3 138.7 411.2 137C457 135.3 503 131.7 548.8 128.7C594.7 125.7 640.3 123.3 686 129.5C731.7 135.7 777.3 150.3 823 146.5C868.7 142.7 914.3 120.3 937.2 109.2L960 98L960 301L937.2 301C914.3 301 868.7 301 823 301C777.3 301 731.7 301 686 301C640.3 301 594.7 301 548.8 301C503 301 457 301 411.2 301C365.3 301 319.7 301 274 301C228.3 301 182.7 301 137 301C91.3 301 45.7 301 22.8 301L0 301Z" fill="#bd9f00"></path><path d="M0 179L22.8 175.8C45.7 172.7 91.3 166.3 137 160.7C182.7 155 228.3 150 274 146.3C319.7 142.7 365.3 140.3 411.2 149C457 157.7 503 177.3 548.8 176.3C594.7 175.3 640.3 153.7 686 144.2C731.7 134.7 777.3 137.3 823 142.2C868.7 147 914.3 154 937.2 157.5L960 161L960 301L937.2 301C914.3 301 868.7 301 823 301C777.3 301 731.7 301 686 301C640.3 301 594.7 301 548.8 301C503 301 457 301 411.2 301C365.3 301 319.7 301 274 301C228.3 301 182.7 301 137 301C91.3 301 45.7 301 22.8 301L0 301Z" fill="#e96600"></path><path d="M0 163L22.8 164.8C45.7 166.7 91.3 170.3 137 175.2C182.7 180 228.3 186 274 186.5C319.7 187 365.3 182 411.2 186.5C457 191 503 205 548.8 207.7C594.7 210.3 640.3 201.7 686 193.8C731.7 186 777.3 179 823 178.2C868.7 177.3 914.3 182.7 937.2 185.3L960 188L960 301L937.2 301C914.3 301 868.7 301 823 301C777.3 301 731.7 301 686 301C640.3 301 594.7 301 548.8 301C503 301 457 301 411.2 301C365.3 301 319.7 301 274 301C228.3 301 182.7 301 137 301C91.3 301 45.7 301 22.8 301L0 301Z" fill="#f80048"></path><path d="M0 199L22.8 206.2C45.7 213.3 91.3 227.7 137 231.7C182.7 235.7 228.3 229.3 274 225.2C319.7 221 365.3 219 411.2 218.2C457 217.3 503 217.7 548.8 223C594.7 228.3 640.3 238.7 686 237C731.7 235.3 777.3 221.7 823 214.2C868.7 206.7 914.3 205.3 937.2 204.7L960 204L960 301L937.2 301C914.3 301 868.7 301 823 301C777.3 301 731.7 301 686 301C640.3 301 594.7 301 548.8 301C503 301 457 301 411.2 301C365.3 301 319.7 301 274 301C228.3 301 182.7 301 137 301C91.3 301 45.7 301 22.8 301L0 301Z" fill="#d9008c"></path><path d="M0 265L22.8 260.8C45.7 256.7 91.3 248.3 137 248.8C182.7 249.3 228.3 258.7 274 258C319.7 257.3 365.3 246.7 411.2 244.3C457 242 503 248 548.8 252.3C594.7 256.7 640.3 259.3 686 258.8C731.7 258.3 777.3 254.7 823 256.5C868.7 258.3 914.3 265.7 937.2 269.3L960 273L960 301L937.2 301C914.3 301 868.7 301 823 301C777.3 301 731.7 301 686 301C640.3 301 594.7 301 548.8 301C503 301 457 301 411.2 301C365.3 301 319.7 301 274 301C228.3 301 182.7 301 137 301C91.3 301 45.7 301 22.8 301L0 301Z" fill="#7828c8"></path></svg>