<svg id="visual" viewBox="0 0 960 300" width="960" height="300" xmlns="http://www.w3.org/2000/svg" xmlns:xlink="http://www.w3.org/1999/xlink" version="1.1"><path d="M0 230L7 228.3C14 226.7 28 223.3 41.8 223.2C55.7 223 69.3 226 83.2 226C97 226 111 223 125 223C139 223 153 226 167 227.2C181 228.3 195 227.7 208.8 225.8C222.7 224 236.3 221 250.2 221.7C264 222.3 278 226.7 292 227C306 227.3 320 223.7 334 223.3C348 223 362 226 375.8 225.5C389.7 225 403.3 221 417.2 220.7C431 220.3 445 223.7 459 224.3C473 225 487 223 501 221.5C515 220 529 219 542.8 219.3C556.7 219.7 570.3 221.3 584.2 222.8C598 224.3 612 225.7 626 225C640 224.3 654 221.7 668 221.2C682 220.7 696 222.3 709.8 223.2C723.7 224 737.3 224 751.2 223C765 222 779 220 793 220.5C807 221 821 224 835 224C849 224 863 221 876.8 221.2C890.7 221.3 904.3 224.7 918.2 225.8C932 227 946 226 953 225.5L960 225L960 301L953 301C946 301 932 301 918.2 301C904.3 301 890.7 301 876.8 301C863 301 849 301 835 301C821 301 807 301 793 301C779 301 765 301 751.2 301C737.3 301 723.7 301 709.8 301C696 301 682 301 668 301C654 301 640 301 626 301C612 301 598 301 584.2 301C570.3 301 556.7 301 542.8 301C529 301 515 301 501 301C487 301 473 301 459 301C445 301 431 301 417.2 301C403.3 301 389.7 301 375.8 301C362 301 348 301 334 301C320 301 306 301 292 301C278 301 264 301 250.2 301C236.3 301 222.7 301 208.8 301C195 301 181 301 167 301C153 301 139 301 125 301C111 301 97 301 83.2 301C69.3 301 55.7 301 41.8 301C28 301 14 301 7 301L0 301Z" fill="#000" stroke-linecap="round" stroke-linejoin="miter"></path></svg>