<svg id="visual" viewBox="0 0 960 300" width="960" height="300" xmlns="http://www.w3.org/2000/svg" xmlns:xlink="http://www.w3.org/1999/xlink" version="1.1"><path d="M0 229L26.7 221.2C53.3 213.3 106.7 197.7 160 199.3C213.3 201 266.7 220 320 220.7C373.3 221.3 426.7 203.7 480 200.8C533.3 198 586.7 210 640 209.2C693.3 208.3 746.7 194.7 800 189.7C853.3 184.7 906.7 188.3 933.3 190.2L960 192L960 0L933.3 0C906.7 0 853.3 0 800 0C746.7 0 693.3 0 640 0C586.7 0 533.3 0 480 0C426.7 0 373.3 0 320 0C266.7 0 213.3 0 160 0C106.7 0 53.3 0 26.7 0L0 0Z" fill="#73abe3"></path><path d="M0 149L26.7 149.5C53.3 150 106.7 151 160 151.8C213.3 152.7 266.7 153.3 320 161.3C373.3 169.3 426.7 184.7 480 184.7C533.3 184.7 586.7 169.3 640 169.7C693.3 170 746.7 186 800 181.8C853.3 177.7 906.7 153.3 933.3 141.2L960 129L960 0L933.3 0C906.7 0 853.3 0 800 0C746.7 0 693.3 0 640 0C586.7 0 533.3 0 480 0C426.7 0 373.3 0 320 0C266.7 0 213.3 0 160 0C106.7 0 53.3 0 26.7 0L0 0Z" fill="#549aec"></path><path d="M0 143L26.7 140.7C53.3 138.3 106.7 133.7 160 133.5C213.3 133.3 266.7 137.7 320 144.8C373.3 152 426.7 162 480 164.8C533.3 167.7 586.7 163.3 640 162.7C693.3 162 746.7 165 800 158.8C853.3 152.7 906.7 137.3 933.3 129.7L960 122L960 0L933.3 0C906.7 0 853.3 0 800 0C746.7 0 693.3 0 640 0C586.7 0 533.3 0 480 0C426.7 0 373.3 0 320 0C266.7 0 213.3 0 160 0C106.7 0 53.3 0 26.7 0L0 0Z" fill="#4187f3"></path><path d="M0 127L26.7 124C53.3 121 106.7 115 160 114.5C213.3 114 266.7 119 320 119.5C373.3 120 426.7 116 480 114.5C533.3 113 586.7 114 640 108.8C693.3 103.7 746.7 92.3 800 86.5C853.3 80.7 906.7 80.3 933.3 80.2L960 80L960 0L933.3 0C906.7 0 853.3 0 800 0C746.7 0 693.3 0 640 0C586.7 0 533.3 0 480 0C426.7 0 373.3 0 320 0C266.7 0 213.3 0 160 0C106.7 0 53.3 0 26.7 0L0 0Z" fill="#4470f4"></path><path d="M0 63L26.7 64.3C53.3 65.7 106.7 68.3 160 72.5C213.3 76.7 266.7 82.3 320 84.3C373.3 86.3 426.7 84.7 480 81C533.3 77.3 586.7 71.7 640 72C693.3 72.3 746.7 78.7 800 81.5C853.3 84.3 906.7 83.7 933.3 83.3L960 83L960 0L933.3 0C906.7 0 853.3 0 800 0C746.7 0 693.3 0 640 0C586.7 0 533.3 0 480 0C426.7 0 373.3 0 320 0C266.7 0 213.3 0 160 0C106.7 0 53.3 0 26.7 0L0 0Z" fill="#5b54f0"></path><path d="M0 23L26.7 29C53.3 35 106.7 47 160 50.8C213.3 54.7 266.7 50.3 320 50.3C373.3 50.3 426.7 54.7 480 52C533.3 49.3 586.7 39.7 640 37.8C693.3 36 746.7 42 800 45.8C853.3 49.7 906.7 51.3 933.3 52.2L960 53L960 0L933.3 0C906.7 0 853.3 0 800 0C746.7 0 693.3 0 640 0C586.7 0 533.3 0 480 0C426.7 0 373.3 0 320 0C266.7 0 213.3 0 160 0C106.7 0 53.3 0 26.7 0L0 0Z" fill="#7828e3"></path></svg>