<?xml version="1.0" standalone="no"?>
<!DOCTYPE svg PUBLIC "-//W3C//DTD SVG 20010904//EN"
 "http://www.w3.org/TR/2001/REC-SVG-20010904/DTD/svg10.dtd">
<svg version="1.0" xmlns="http://www.w3.org/2000/svg"
 width="1280.000000pt" height="640.000000pt" viewBox="0 0 1280.000000 640.000000"
 preserveAspectRatio="xMidYMid meet">

<g transform="translate(0.000000,640.000000) scale(0.100000,-0.100000)"
fill="#000000" stroke="none">
<path d="M5252 4347 c-628 -628 -1142 -1146 -1142 -1151 0 -5 516 -524 1146
-1154 l1145 -1146 1151 1151 1151 1151 -1146 1146 c-630 630 -1149 1146 -1154
1146 -4 0 -522 -514 -1151 -1143z m1338 -282 c101 -29 158 -57 228 -114 38
-31 64 -64 126 -165 10 -16 27 -70 37 -120 17 -81 19 -139 19 -518 l0 -427 76
-3 76 -3 -1 -180 c0 -99 -1 -184 -1 -189 0 -5 -73 -7 -167 -4 -195 6 -221 14
-296 98 -44 49 -54 69 -77 158 -6 23 -14 42 -18 42 -5 0 -23 -36 -40 -79 -27
-66 -44 -89 -95 -138 -52 -47 -79 -63 -148 -88 -76 -27 -96 -30 -204 -30 -106
1 -129 4 -200 29 -147 53 -237 156 -274 315 -46 193 -9 382 95 496 33 36 108
92 134 100 14 4 30 11 36 16 27 22 160 59 241 69 48 5 162 10 252 10 l164 0
-5 103 c-9 166 -45 223 -161 259 -78 23 -157 20 -243 -9 -54 -18 -139 -85
-175 -138 -13 -19 -27 -35 -30 -35 -6 0 -84 73 -216 203 l-52 50 20 28 c11 16
43 53 70 84 144 156 319 219 594 210 112 -3 159 -9 235 -30z"/>
<path d="M6190 3049 c-43 -18 -92 -61 -106 -95 -19 -45 -18 -174 2 -223 23
-57 90 -91 181 -92 92 -1 145 15 208 61 65 48 75 81 75 244 l0 116 -167 -1
c-93 0 -179 -5 -193 -10z"/>
</g>
</svg>
